<mxfile host="Electron" modified="2023-10-06T16:54:12.597Z" agent="Mozilla/5.0 (Windows NT 10.0; Win64; x64) AppleWebKit/537.36 (KHTML, like Gecko) draw.io/21.7.5 Chrome/114.0.5735.289 Electron/25.8.1 Safari/537.36" etag="iaWn7XqjUVTDmy4MBrS9" version="21.7.5" type="device">
  <diagram name="Pagina-1" id="lrl_J1c7smbgHkatfIVA">
    <mxGraphModel dx="1104" dy="516" grid="1" gridSize="10" guides="1" tooltips="1" connect="1" arrows="1" fold="1" page="1" pageScale="1" pageWidth="827" pageHeight="1169" math="0" shadow="0">
      <root>
        <mxCell id="0" />
        <mxCell id="1" parent="0" />
        <mxCell id="Nqf4Yq8pAy9v_C6nLwKi-1" value="" style="shape=umlLifeline;perimeter=lifelinePerimeter;whiteSpace=wrap;html=1;container=1;dropTarget=0;collapsible=0;recursiveResize=0;outlineConnect=0;portConstraint=eastwest;newEdgeStyle={&quot;curved&quot;:0,&quot;rounded&quot;:0};participant=umlActor;" parent="1" vertex="1">
          <mxGeometry x="40" y="50" width="20" height="590" as="geometry" />
        </mxCell>
        <mxCell id="Nqf4Yq8pAy9v_C6nLwKi-3" value="" style="html=1;points=[[0,0,0,0,5],[0,1,0,0,-5],[1,0,0,0,5],[1,1,0,0,-5]];perimeter=orthogonalPerimeter;outlineConnect=0;targetShapes=umlLifeline;portConstraint=eastwest;newEdgeStyle={&quot;curved&quot;:0,&quot;rounded&quot;:0};" parent="Nqf4Yq8pAy9v_C6nLwKi-1" vertex="1">
          <mxGeometry x="5" y="60" width="10" height="500" as="geometry" />
        </mxCell>
        <mxCell id="Nqf4Yq8pAy9v_C6nLwKi-2" value="Rider" style="text;html=1;align=center;verticalAlign=middle;resizable=0;points=[];autosize=1;strokeColor=none;fillColor=none;" parent="1" vertex="1">
          <mxGeometry x="25" y="22" width="50" height="30" as="geometry" />
        </mxCell>
        <mxCell id="Nqf4Yq8pAy9v_C6nLwKi-4" value="&amp;lt;&amp;lt;create&amp;gt;&amp;gt;" style="html=1;verticalAlign=bottom;endArrow=block;curved=0;rounded=0;" parent="1" edge="1">
          <mxGeometry width="80" relative="1" as="geometry">
            <mxPoint x="50" y="140" as="sourcePoint" />
            <mxPoint x="130" y="140" as="targetPoint" />
          </mxGeometry>
        </mxCell>
        <mxCell id="Nqf4Yq8pAy9v_C6nLwKi-5" value="Geolocalizzazione" style="shape=umlLifeline;perimeter=lifelinePerimeter;whiteSpace=wrap;html=1;container=1;dropTarget=0;collapsible=0;recursiveResize=0;outlineConnect=0;portConstraint=eastwest;newEdgeStyle={&quot;curved&quot;:0,&quot;rounded&quot;:0};" parent="1" vertex="1">
          <mxGeometry x="130" y="121" width="100" height="239" as="geometry" />
        </mxCell>
        <mxCell id="Nqf4Yq8pAy9v_C6nLwKi-6" value="" style="html=1;points=[[0,0,0,0,5],[0,1,0,0,-5],[1,0,0,0,5],[1,1,0,0,-5]];perimeter=orthogonalPerimeter;outlineConnect=0;targetShapes=umlLifeline;portConstraint=eastwest;newEdgeStyle={&quot;curved&quot;:0,&quot;rounded&quot;:0};" parent="Nqf4Yq8pAy9v_C6nLwKi-5" vertex="1">
          <mxGeometry x="45" y="89" width="10" height="80" as="geometry" />
        </mxCell>
        <mxCell id="Nqf4Yq8pAy9v_C6nLwKi-7" value="Cerca()" style="html=1;verticalAlign=bottom;endArrow=block;curved=0;rounded=0;" parent="1" target="Nqf4Yq8pAy9v_C6nLwKi-12" edge="1">
          <mxGeometry width="80" relative="1" as="geometry">
            <mxPoint x="180" y="230" as="sourcePoint" />
            <mxPoint x="260" y="230" as="targetPoint" />
          </mxGeometry>
        </mxCell>
        <mxCell id="Nqf4Yq8pAy9v_C6nLwKi-8" value="Bottone &quot;Visualizza Ordini Rider&quot;" style="shape=umlLifeline;perimeter=lifelinePerimeter;whiteSpace=wrap;html=1;container=1;dropTarget=0;collapsible=0;recursiveResize=0;outlineConnect=0;portConstraint=eastwest;newEdgeStyle={&quot;curved&quot;:0,&quot;rounded&quot;:0};" parent="1" vertex="1">
          <mxGeometry x="260" y="120" width="100" height="440" as="geometry" />
        </mxCell>
        <mxCell id="Nqf4Yq8pAy9v_C6nLwKi-12" value="" style="html=1;points=[[0,0,0,0,5],[0,1,0,0,-5],[1,0,0,0,5],[1,1,0,0,-5]];perimeter=orthogonalPerimeter;outlineConnect=0;targetShapes=umlLifeline;portConstraint=eastwest;newEdgeStyle={&quot;curved&quot;:0,&quot;rounded&quot;:0};" parent="Nqf4Yq8pAy9v_C6nLwKi-8" vertex="1">
          <mxGeometry x="45" y="90" width="10" height="120" as="geometry" />
        </mxCell>
        <mxCell id="Nqf4Yq8pAy9v_C6nLwKi-16" value="" style="html=1;points=[[0,0,0,0,5],[0,1,0,0,-5],[1,0,0,0,5],[1,1,0,0,-5]];perimeter=orthogonalPerimeter;outlineConnect=0;targetShapes=umlLifeline;portConstraint=eastwest;newEdgeStyle={&quot;curved&quot;:0,&quot;rounded&quot;:0};" parent="Nqf4Yq8pAy9v_C6nLwKi-8" vertex="1">
          <mxGeometry x="45" y="311" width="10" height="100" as="geometry" />
        </mxCell>
        <mxCell id="Nqf4Yq8pAy9v_C6nLwKi-13" value="&amp;lt;&amp;lt;create&amp;gt;&amp;gt;" style="html=1;verticalAlign=bottom;endArrow=block;curved=0;rounded=0;" parent="1" edge="1">
          <mxGeometry width="80" relative="1" as="geometry">
            <mxPoint x="310" y="320" as="sourcePoint" />
            <mxPoint x="390" y="320" as="targetPoint" />
          </mxGeometry>
        </mxCell>
        <mxCell id="Nqf4Yq8pAy9v_C6nLwKi-14" value="control &quot;Visualizza Ordini&quot;" style="shape=umlLifeline;perimeter=lifelinePerimeter;whiteSpace=wrap;html=1;container=1;dropTarget=0;collapsible=0;recursiveResize=0;outlineConnect=0;portConstraint=eastwest;newEdgeStyle={&quot;curved&quot;:0,&quot;rounded&quot;:0};" parent="1" vertex="1">
          <mxGeometry x="390" y="300" width="100" height="300" as="geometry" />
        </mxCell>
        <mxCell id="Nqf4Yq8pAy9v_C6nLwKi-15" value="" style="html=1;points=[[0,0,0,0,5],[0,1,0,0,-5],[1,0,0,0,5],[1,1,0,0,-5]];perimeter=orthogonalPerimeter;outlineConnect=0;targetShapes=umlLifeline;portConstraint=eastwest;newEdgeStyle={&quot;curved&quot;:0,&quot;rounded&quot;:0};" parent="Nqf4Yq8pAy9v_C6nLwKi-14" vertex="1">
          <mxGeometry x="45" y="74" width="10" height="80" as="geometry" />
        </mxCell>
        <mxCell id="Nqf4Yq8pAy9v_C6nLwKi-31" value="" style="shape=umlDestroy;whiteSpace=wrap;html=1;strokeWidth=3;targetShapes=umlLifeline;" parent="Nqf4Yq8pAy9v_C6nLwKi-14" vertex="1">
          <mxGeometry x="36" y="205" width="30" height="30" as="geometry" />
        </mxCell>
        <mxCell id="Nqf4Yq8pAy9v_C6nLwKi-17" value="InviaDisponibilità()" style="html=1;verticalAlign=bottom;endArrow=block;curved=0;rounded=0;" parent="1" target="Nqf4Yq8pAy9v_C6nLwKi-8" edge="1">
          <mxGeometry width="80" relative="1" as="geometry">
            <mxPoint x="440" y="440" as="sourcePoint" />
            <mxPoint x="360" y="440" as="targetPoint" />
          </mxGeometry>
        </mxCell>
        <mxCell id="Nqf4Yq8pAy9v_C6nLwKi-18" value="Clicca" style="html=1;verticalAlign=bottom;endArrow=block;curved=0;rounded=0;" parent="1" target="Nqf4Yq8pAy9v_C6nLwKi-8" edge="1">
          <mxGeometry width="80" relative="1" as="geometry">
            <mxPoint x="50" y="480" as="sourcePoint" />
            <mxPoint x="130" y="480" as="targetPoint" />
          </mxGeometry>
        </mxCell>
        <mxCell id="Nqf4Yq8pAy9v_C6nLwKi-20" value="Bottone&quot;Accetta Ordine&quot;" style="shape=umlLifeline;perimeter=lifelinePerimeter;whiteSpace=wrap;html=1;container=1;dropTarget=0;collapsible=0;recursiveResize=0;outlineConnect=0;portConstraint=eastwest;newEdgeStyle={&quot;curved&quot;:0,&quot;rounded&quot;:0};" parent="1" vertex="1">
          <mxGeometry x="490" y="382" width="100" height="388" as="geometry" />
        </mxCell>
        <mxCell id="Nqf4Yq8pAy9v_C6nLwKi-21" value="" style="html=1;points=[[0,0,0,0,5],[0,1,0,0,-5],[1,0,0,0,5],[1,1,0,0,-5]];perimeter=orthogonalPerimeter;outlineConnect=0;targetShapes=umlLifeline;portConstraint=eastwest;newEdgeStyle={&quot;curved&quot;:0,&quot;rounded&quot;:0};" parent="Nqf4Yq8pAy9v_C6nLwKi-20" vertex="1">
          <mxGeometry x="45" y="85" width="10" height="105" as="geometry" />
        </mxCell>
        <mxCell id="Nqf4Yq8pAy9v_C6nLwKi-24" value="" style="html=1;points=[[0,0,0,0,5],[0,1,0,0,-5],[1,0,0,0,5],[1,1,0,0,-5]];perimeter=orthogonalPerimeter;outlineConnect=0;targetShapes=umlLifeline;portConstraint=eastwest;newEdgeStyle={&quot;curved&quot;:0,&quot;rounded&quot;:0};" parent="Nqf4Yq8pAy9v_C6nLwKi-20" vertex="1">
          <mxGeometry x="45" y="247" width="10" height="110" as="geometry" />
        </mxCell>
        <mxCell id="Nqf4Yq8pAy9v_C6nLwKi-22" value="&amp;lt;&amp;lt;create&amp;gt;&amp;gt;" style="html=1;verticalAlign=bottom;endArrow=block;curved=0;rounded=0;" parent="1" edge="1">
          <mxGeometry width="80" relative="1" as="geometry">
            <mxPoint x="540" y="560" as="sourcePoint" />
            <mxPoint x="620" y="560" as="targetPoint" />
          </mxGeometry>
        </mxCell>
        <mxCell id="Nqf4Yq8pAy9v_C6nLwKi-23" value="Control &quot;Accetta Ordine Rider&quot;" style="shape=umlLifeline;perimeter=lifelinePerimeter;whiteSpace=wrap;html=1;container=1;dropTarget=0;collapsible=0;recursiveResize=0;outlineConnect=0;portConstraint=eastwest;newEdgeStyle={&quot;curved&quot;:0,&quot;rounded&quot;:0};" parent="1" vertex="1">
          <mxGeometry x="620" y="540" width="100" height="300" as="geometry" />
        </mxCell>
        <mxCell id="Nqf4Yq8pAy9v_C6nLwKi-25" value="" style="html=1;points=[[0,0,0,0,5],[0,1,0,0,-5],[1,0,0,0,5],[1,1,0,0,-5]];perimeter=orthogonalPerimeter;outlineConnect=0;targetShapes=umlLifeline;portConstraint=eastwest;newEdgeStyle={&quot;curved&quot;:0,&quot;rounded&quot;:0};" parent="Nqf4Yq8pAy9v_C6nLwKi-23" vertex="1">
          <mxGeometry x="45" y="67" width="10" height="60" as="geometry" />
        </mxCell>
        <mxCell id="Nqf4Yq8pAy9v_C6nLwKi-26" value="InviaDisponibilità()" style="html=1;verticalAlign=bottom;endArrow=block;curved=0;rounded=0;" parent="1" target="Nqf4Yq8pAy9v_C6nLwKi-20" edge="1">
          <mxGeometry width="80" relative="1" as="geometry">
            <mxPoint x="670" y="639" as="sourcePoint" />
            <mxPoint x="600" y="639" as="targetPoint" />
          </mxGeometry>
        </mxCell>
        <mxCell id="Nqf4Yq8pAy9v_C6nLwKi-27" value="Notifica" style="html=1;verticalAlign=bottom;endArrow=block;curved=0;rounded=0;" parent="1" edge="1">
          <mxGeometry width="80" relative="1" as="geometry">
            <mxPoint x="540" y="720" as="sourcePoint" />
            <mxPoint x="780" y="720" as="targetPoint" />
          </mxGeometry>
        </mxCell>
        <mxCell id="Nqf4Yq8pAy9v_C6nLwKi-29" value="Accetta()" style="html=1;verticalAlign=bottom;endArrow=block;curved=0;rounded=0;" parent="1" target="Nqf4Yq8pAy9v_C6nLwKi-20" edge="1">
          <mxGeometry width="80" relative="1" as="geometry">
            <mxPoint x="310" y="480" as="sourcePoint" />
            <mxPoint x="500" y="480" as="targetPoint" />
          </mxGeometry>
        </mxCell>
        <mxCell id="Nqf4Yq8pAy9v_C6nLwKi-30" value="&amp;lt;&amp;lt;destroy&amp;gt;&amp;gt;" style="html=1;verticalAlign=bottom;endArrow=block;curved=0;rounded=0;" parent="1" target="Nqf4Yq8pAy9v_C6nLwKi-14" edge="1">
          <mxGeometry width="80" relative="1" as="geometry">
            <mxPoint x="310" y="520" as="sourcePoint" />
            <mxPoint x="390" y="520" as="targetPoint" />
          </mxGeometry>
        </mxCell>
        <mxCell id="6QIJ-IgOwSA7gEzvFx5H-1" value="Locale" style="shape=umlActor;verticalLabelPosition=bottom;verticalAlign=top;html=1;outlineConnect=0;" parent="1" vertex="1">
          <mxGeometry x="780" y="690" width="30" height="60" as="geometry" />
        </mxCell>
        <mxCell id="nhpQjqe7oKUfUCba0d5Q-1" value="Lista Ordini" style="html=1;verticalAlign=bottom;endArrow=open;dashed=1;endSize=8;curved=0;rounded=0;" edge="1" parent="1" target="Nqf4Yq8pAy9v_C6nLwKi-3">
          <mxGeometry relative="1" as="geometry">
            <mxPoint x="440.5" y="400" as="sourcePoint" />
            <mxPoint x="310" y="400" as="targetPoint" />
          </mxGeometry>
        </mxCell>
      </root>
    </mxGraphModel>
  </diagram>
</mxfile>
